<?xml version="1.0" encoding="UTF-8"?>
<svg version="1.1" xmlns="http://www.w3.org/2000/svg" width="918" height="272">
<path d="M0 0 C4.69994029 1.71728588 7.20959499 3.86606666 10 8 C11.23761263 11.7128379 11.57098209 15.14221077 11 19 C9.71203834 21.02951535 8.38442 23.03501678 7 25 C7.38873355 28.06684961 8.66650111 30.45227411 10.1796875 33.1171875 C10.61410156 33.88933594 11.04851562 34.66148438 11.49609375 35.45703125 C12.17865234 36.65392578 12.17865234 36.65392578 12.875 37.875 C15.70033352 42.86615115 18.49441645 47.83949349 21 53 C22.60875 52.505 22.60875 52.505 24.25 52 C34.8673352 49.44362931 44.40358145 50.74101518 54 56 C61.3630257 61.52498826 66.96644745 68.87639539 68.51953125 78.078125 C68.77273625 80.71145704 68.89832605 83.35647719 69 86 C74.61 86.66 80.22 87.32 86 88 C86.66 86.35 87.32 84.7 88 83 C91.37929819 80.6423501 93.36832409 79.98872007 97.5 80.0625 C102.02911582 81.27565602 105.43970683 83.01417232 108.375 86.75 C109.3523507 90.26846253 109.78133965 93.4376209 109 97 C106.92499561 100.32255304 104.53431872 103.23284064 101 105 C97.25004517 105.52499368 93.58805413 105.80572852 90.14453125 104.05859375 C86.85300487 101.46600877 85.30271127 98.90813382 84 95 C81.0686117 93.53430585 78.11367734 93.37913782 74.875 92.9375 C73.59367187 92.76089844 72.31234375 92.58429688 70.9921875 92.40234375 C70.00476563 92.26957031 69.01734375 92.13679688 68 92 C67.85304688 92.556875 67.70609375 93.11375 67.5546875 93.6875 C64.5614988 103.87122246 59.20267169 109.83358782 50 115 C40.84221287 119.65922503 33.71605998 119.20270925 24 117 C23.35554932 116.7745752 22.71109863 116.54915039 22.04711914 116.31689453 C19.99134113 115.78667386 19.99134113 115.78667386 18.33666992 116.90527344 C16.585317 118.49078157 14.86421372 120.08520062 13.1875 121.75 C12.291521 122.63776123 12.291521 122.63776123 11.37744141 123.54345703 C8.71247529 126.39959718 7.14243848 128.15822073 6.48046875 132.0703125 C6.8327466 134.87031291 6.8327466 134.87031291 7.49609375 137.5625 C8.33738015 141.63197839 7.16396675 143.50973105 5 147 C1.13824177 151.22954473 -2.14793611 152.87420846 -7.7578125 153.1953125 C-12.97907048 152.74049909 -16.01755636 150.08320709 -19.4375 146.3125 C-21.45876794 142.02741196 -21.81940711 138.65724245 -21 134 C-18.6369136 129.18293927 -15.81706073 126.3630864 -11 124 C-7.28260461 123.54098248 -3.62174939 123.43920435 -0.05419922 124.67285156 C0.96262939 124.83479004 0.96262939 124.83479004 2 125 C4.29016466 123.08065216 6.23281698 121.23652142 8.25 119.0625 C9.08144531 118.1972168 9.08144531 118.1972168 9.9296875 117.31445312 C11.29794145 115.88722271 12.6505038 114.44497942 14 113 C12.7020329 110.14447237 11.30126127 108.11891706 9.125 105.875 C3.53081767 99.48556626 2 93.40724996 2 85 C-4.27 84.67 -10.54 84.34 -17 84 C-17.33 85.32 -17.66 86.64 -18 88 C-21.20021904 90.74304489 -23.29823679 91.9122796 -27.5 92.4375 C-32.38235744 91.82720532 -35.58653613 90.60192572 -38.875 86.875 C-40.83617089 81.86311883 -40.90194823 77.07448094 -38.75 72.125 C-36.35425145 69.21587676 -34.38796225 67.25051026 -30.59765625 66.56640625 C-26.46533475 66.56003904 -23.73405843 66.59392513 -20.0625 68.625 C-18 71 -18 71 -17 74.1875 C-15.27596157 77.29615263 -15.27596157 77.29615263 -12.06640625 77.5703125 C-9.75689252 77.72994444 -7.44326984 77.83923929 -5.12890625 77.89453125 C-2.53430462 77.98198973 -0.46203457 78.24384688 2 79 C2.14695313 78.3709375 2.29390625 77.741875 2.4453125 77.09375 C4.15729096 70.56068277 6.66429816 66.12015645 11 61 C12.33594539 59.33542634 13.6698223 57.66918628 15 56 C14.49210937 55.12859375 13.98421875 54.2571875 13.4609375 53.359375 C12.76557127 52.15628105 12.07026305 50.95315357 11.375 49.75 C11.00818115 49.12262939 10.6413623 48.49525879 10.26342773 47.84887695 C7.8846726 43.7271893 5.93445696 39.56946122 4.0625 35.1875 C2.30823419 31.27776832 2.30823419 31.27776832 -1.16015625 29.17578125 C-3.49474516 28.96246559 -3.49474516 28.96246559 -5.8203125 29.05078125 C-10.11422111 28.95074395 -12.86896276 26.09203595 -15.8125 23.25 C-18.14290456 18.83449663 -18.31171497 14.58974634 -17.375 9.8125 C-13.73414015 2.36528668 -8.14595155 -0.98926167 0 0 Z M-9 11 C-10.09616096 13.31194193 -10.09616096 13.31194193 -10 16 C-8.1687189 18.81099414 -8.1687189 18.81099414 -6 21 C-3.06556598 20.73343428 -3.06556598 20.73343428 0 20 C2.38798682 17.09414313 2.38798682 17.09414313 1.6875 13.375 C1.35886877 10.17495688 1.35886877 10.17495688 0 9 C-4.03160191 8.73706944 -5.55892734 8.70595156 -9 11 Z M22.125 69.75 C17.56924851 74.15776884 15.84227855 78.03626725 15.5625 84.375 C15.75007336 90.94006748 17.89435031 95.24087282 21.8125 100.375 C26.65410247 103.97161898 32.54680932 104.57610192 38.4375 104.44140625 C43.78882736 103.51960748 47.91468734 100.41942352 51.4140625 96.359375 C54.63875375 91.39474242 55.72925238 85.5946334 54.55859375 79.82421875 C52.68022301 74.12470525 49.43643088 70.79526486 44.625 67.25 C37.03791322 63.63710153 28.65582663 64.50053809 22.125 69.75 Z M-31.3125 73.4375 C-33.33923701 75.03020218 -33.33923701 75.03020218 -33.875 78.4375 C-34.35062805 82.10622176 -34.35062805 82.10622176 -32 85 C-28.54250051 85.66676878 -28.54250051 85.66676878 -25 85 C-22.82979708 82.91078244 -22.82979708 82.91078244 -22 80 C-22.21329449 77.25760857 -22.21329449 77.25760857 -23 75 C-27.03930334 73.30653501 -27.03930334 73.30653501 -31.3125 73.4375 Z M93.1875 89.1875 C91.74807293 90.9969478 91.74807293 90.9969478 92.125 93.5625 C92.84389168 96.3261611 92.84389168 96.3261611 96 98 C98.67145537 97.19838209 98.67145537 97.19838209 101 96 C100.01 95.34 99.02 94.68 98 94 C98.33 93.01 98.66 92.02 99 91 C99.66 91.33 100.32 91.66 101 92 C100.34 90.68 99.68 89.36 99 88 C95.19649626 87.63464916 95.19649626 87.63464916 93.1875 89.1875 Z M101 92 C102 94 102 94 102 94 Z M-11.3125 134.125 C-13.3952479 136.93389877 -13.3952479 136.93389877 -12.3125 140.25 C-11.25758677 142.85360611 -11.25758677 142.85360611 -10 144 C-5.96839809 144.26293056 -4.44107266 144.29404844 -1 142 C-0.33323122 138.54250051 -0.33323122 138.54250051 -1 135 C-4.69987972 131.90010078 -7.50628049 130.62739288 -11.3125 134.125 Z " fill="#070708" transform="translate(113,45)"/>
<path d="M0 0 C3.73722721 2.06840248 6.40007151 4.0705748 8.625 7.8125 C8.625 8.4725 8.625 9.1325 8.625 9.8125 C9.285 9.8125 9.945 9.8125 10.625 9.8125 C10.88925781 9.21695313 11.15351563 8.62140625 11.42578125 8.0078125 C13.98613802 3.32077503 18.13011684 0.42152647 23 -1.5625 C31.84199512 -3.08698192 38.05608706 -2.41763169 45.625 2.8125 C52.4132002 8.62095997 52.95506438 16.34002902 53.625 24.8125 C53.89569946 30.60228282 53.81754663 36.39378382 53.75 42.1875 C53.73993466 43.71353569 53.73081518 45.23957792 53.72265625 46.765625 C53.70095976 50.44805614 53.66663286 54.13023376 53.625 57.8125 C50.64287087 59.30356457 47.90890342 58.93191467 44.625 58.8125 C42.52215384 56.70965384 43.41460557 52.08609349 43.37890625 49.17578125 C43.34594945 47.383459 43.31273813 45.59114141 43.27929688 43.79882812 C43.23199624 40.96593657 43.18761217 38.1330614 43.14819336 35.30004883 C43.10831541 32.57091641 43.0567881 29.84218841 43.00390625 27.11328125 C42.9954921 26.27243484 42.98707794 25.43158844 42.97840881 24.56526184 C42.86796623 19.2750786 42.54793746 14.38746798 39.265625 9.9921875 C36.08437409 7.70471661 32.44264315 7.71705892 28.625 7.8125 C22.73719635 9.48071103 20.05260134 11.9735334 16.625 16.8125 C15.38810014 20.52319958 15.43184684 24.00750221 15.37890625 27.875 C15.34597974 29.49219316 15.3127679 31.10938052 15.27929688 32.7265625 C15.23181446 35.27437518 15.1873515 37.82216241 15.14819336 40.37011719 C15.10852033 42.83032037 15.05697925 45.29005456 15.00390625 47.75 C14.9954921 48.51256104 14.98707794 49.27512207 14.97840881 50.06079102 C14.89023184 53.82713489 14.76466176 55.60300736 12.625 58.8125 C9.0625 59.0625 9.0625 59.0625 5.625 58.8125 C3.60093712 56.78843712 4.4160465 52.65032317 4.37890625 49.8671875 C4.3459408 48.21614107 4.31272965 46.56509953 4.27929688 44.9140625 C4.23206636 42.30732935 4.1876987 39.70061204 4.14819336 37.09375 C4.10820558 34.58050602 4.05669781 32.06769073 4.00390625 29.5546875 C3.9954921 28.78462372 3.98707794 28.01455994 3.97840881 27.22116089 C3.84271388 21.21174357 3.15452737 15.94456845 -0.4375 10.9375 C-4.36283443 8.09789637 -7.57295806 7.51648372 -12.375 7.8125 C-16.26276703 8.79939471 -20.07726156 10.42635913 -22.375 13.8125 C-24.23871458 19.22959868 -24.70620022 24.10514766 -24.7890625 29.80859375 C-24.80842865 30.64213882 -24.8277948 31.4756839 -24.8477478 32.33448792 C-24.90708993 34.97289084 -24.95374573 37.61133848 -25 40.25 C-25.03822164 42.04884619 -25.07727575 43.84767489 -25.1171875 45.64648438 C-25.2127536 50.03501271 -25.2969502 54.42362661 -25.375 58.8125 C-31.52734375 58.91015625 -31.52734375 58.91015625 -33.375 58.8125 C-35.41160702 56.77589298 -34.58716385 52.58762996 -34.61328125 49.7890625 C-34.621353 48.97311615 -34.62942474 48.1571698 -34.63774109 47.3164978 C-34.65160946 45.57967262 -34.66231923 43.84281986 -34.67016602 42.10595703 C-34.68720544 39.48284522 -34.73104187 36.86105203 -34.77539062 34.23828125 C-34.8753261 23.45568107 -34.14099554 14.79378704 -28.25 5.4375 C-19.83203697 -2.24846625 -10.53820338 -4.867352 0 0 Z " fill="#060506" transform="translate(297.375,105.1875)"/>
<path d="M0 0 C2.64 0 5.28 0 8 0 C9.23058026 2.46116052 9.13346522 4.08959438 9.14526367 6.84179688 C9.15164352 7.850448 9.15802338 8.85909912 9.16459656 9.89831543 C9.16570938 10.99405884 9.1668222 12.08980225 9.16796875 13.21875 C9.17296135 14.91022156 9.17296135 14.91022156 9.17805481 16.63586426 C9.18312753 19.03002514 9.18546303 21.42419312 9.18530273 23.81835938 C9.18747443 27.45715282 9.20558555 31.09563584 9.22460938 34.734375 C9.22754629 37.06249897 9.22952909 39.39062437 9.23046875 41.71875 C9.23765427 42.79829956 9.24483978 43.87784912 9.25224304 44.9901123 C9.21463885 57.62659904 7.30605156 66.69394844 -1.8125 75.8125 C-9.65399842 81.19392048 -17.56187585 83.75322776 -27.16015625 82.78125 C-32.47187048 81.68300292 -37.66940549 79.2524382 -42 76 C-43.2578125 73.8359375 -43.2578125 73.8359375 -44 72 C-44.66 72 -45.32 72 -46 72 C-46.98669759 70.10807525 -47.9640602 68.21128022 -48.9375 66.3125 C-49.75541016 64.72888672 -49.75541016 64.72888672 -50.58984375 63.11328125 C-54.10363394 55.35568906 -53.47042905 47.79863553 -51.09375 39.77734375 C-47.67810526 31.10404587 -41.29370988 25.88984718 -33 22 C-25.52426646 19.49261111 -16.39773621 19.8324834 -9.375 23.3125 C-6.40703572 24.99907356 -3.70149964 26.91581137 -1 29 C-1 28.01 -1 27.02 -1 26 C-0.9328951 24.00630632 -0.85903753 22.01283671 -0.78125 20.01953125 C-0.73613281 18.85615234 -0.69101562 17.69277344 -0.64453125 16.49414062 C-0.59683594 15.27919922 -0.54914063 14.06425781 -0.5 12.8125 C-0.45230469 11.58595703 -0.40460938 10.35941406 -0.35546875 9.09570312 C-0.23749515 6.06378159 -0.1189842 3.03188202 0 0 Z M-38.5 36.5 C-43.78120544 43.25503022 -43.76351503 49.58248249 -43 58 C-41.45917245 63.37207444 -38.40844027 67.57121312 -34 71 C-27.40060808 74.08220188 -21.06025337 75.11926736 -14 72.9375 C-8.07456997 70.47528247 -3.61583394 66.0816447 -1.0625 60.1875 C0.83252828 54.06418987 1.08583376 47.75417135 -1.5 41.8125 C-4.79520588 36.07208834 -9.50183325 31.99065233 -15.625 29.5625 C-24.29070695 28.11821551 -32.46822311 29.6255484 -38.5 36.5 Z " fill="#060506" transform="translate(503,81)"/>
<path d="M0 0 C2.97 0 5.94 0 9 0 C9.07649345 7.63136321 9.1287852 15.26262637 9.16479492 22.89428711 C9.17981774 25.48677261 9.20024186 28.07923298 9.22631836 30.67163086 C9.26298808 34.41266105 9.27979212 38.15335319 9.29296875 41.89453125 C9.30845261 43.04081497 9.32393646 44.18709869 9.33988953 45.36811829 C9.34203952 55.80825654 8.01975369 65.76020309 0.50390625 73.55078125 C-6.37640394 79.95439559 -14.55660092 83.33086362 -24 83 C-33.02057153 81.78636554 -39.98697292 78.99836855 -45.75 71.8203125 C-51.9908696 62.90907082 -52.90348495 54.76374042 -52 44 C-49.8948154 35.2947772 -45.50078346 29.37602675 -37.875 24.6875 C-30.27924624 20.28935079 -22.17763118 19.75070198 -13.546875 21.49609375 C-8.62333884 23.21157781 -5.36461372 25.88241877 -1 29 C-0.67 19.43 -0.34 9.86 0 0 Z M-40.75 40.125 C-44.23461522 45.35192283 -43.61929573 51.99491895 -43 58 C-40.76652163 64.44094384 -37.07983834 68.6586795 -31.17578125 72.046875 C-25.76230444 74.41830829 -19.20235578 74.76351419 -13.625 72.8125 C-7.24638997 69.87652064 -3.90918583 66.1939968 -0.953125 59.8515625 C1.18216588 53.46319224 1.13674111 46.75019844 -1.625 40.5625 C-5.24773258 34.4783289 -10.18167496 31.43981426 -16.84375 29.5078125 C-27.022519 27.11063864 -34.50553053 32.54242993 -40.75 40.125 Z " fill="#040404" transform="translate(849,81)"/>
<path d="M0 0 C8.19789684 4.69866034 13.0443555 11.31982507 16.04296875 20.23828125 C16.58492393 23.25927891 16.4375 26.36827497 16.4375 29.4375 C-0.0625 29.7675 -16.5625 30.0975 -33.5625 30.4375 C-32.58087831 38.29047354 -31.911107 41.18548184 -26.5625 46.4375 C-20.60198969 50.03629868 -14.7697076 50.41607519 -8.09375 48.86328125 C-4.00400986 47.60847461 -1.56392552 46.49895403 1.4375 43.4375 C2.0975 43.4375 2.7575 43.4375 3.4375 43.4375 C3.664375 42.633125 3.89125 41.82875 4.125 41 C5.4375 38.4375 5.4375 38.4375 7.875 37.5 C10.4375 37.4375 10.4375 37.4375 13.4375 39.4375 C13.95927099 42.53712964 13.69150539 44.01245946 12.07421875 46.71875 C5.31233481 54.41564394 -2.87667992 58.97640896 -13.1875 59.6875 C-21.61146553 59.56176917 -29.37147641 56.57432932 -35.375 50.6484375 C-42.6654954 42.78077788 -44.75297331 35.09130741 -44.5625 24.4375 C-43.33993269 16.09318137 -39.16855273 9.04355273 -33.25 3.125 C-32.363125 2.568125 -31.47625 2.01125 -30.5625 1.4375 C-29.97339844 1.06753906 -29.38429688 0.69757813 -28.77734375 0.31640625 C-19.79497181 -4.53575355 -9.14245195 -4.24146092 0 0 Z M-30.5 13.375 C-32.91653362 16.53895875 -32.91653362 16.53895875 -33.5625 21.4375 C-20.6925 21.4375 -7.8225 21.4375 5.4375 21.4375 C4.4910743 15.75894578 3.59247296 13.11513926 -0.5625 9.4375 C-10.24168362 3.51146921 -22.83775306 4.95088191 -30.5 13.375 Z " fill="#040404" transform="translate(697.5625,104.5625)"/>
<path d="M0 0 C7.65892428 5.78901969 12.46197551 12.17639547 14.3359375 21.765625 C14.43090476 24.44531445 14.47606137 27.09801767 14.46875 29.77734375 C14.46970673 30.54617386 14.47066345 31.31500397 14.47164917 32.10713196 C14.47232806 33.72677696 14.47049413 35.34642472 14.46630859 36.96606445 C14.4609342 39.45465122 14.46627464 41.9430593 14.47265625 44.43164062 C14.47199585 46.00520873 14.47071547 47.57877673 14.46875 49.15234375 C14.47077423 49.90021652 14.47279846 50.64808929 14.47488403 51.41862488 C14.45090373 56.65065877 14.45090373 56.65065877 13.3359375 57.765625 C10.33262732 57.90755837 7.34376616 57.80798878 4.3359375 57.765625 C4.3359375 54.795625 4.3359375 51.825625 4.3359375 48.765625 C3.71847656 49.16394531 3.10101562 49.56226563 2.46484375 49.97265625 C-6.92337513 55.84565162 -14.49170173 59.3026491 -25.6640625 56.765625 C-34.78614674 53.66278467 -40.79046499 47.9788614 -45.0390625 39.390625 C-48.67831684 30.17433155 -47.9049143 22.0309648 -44.6640625 12.765625 C-41.06060562 5.94479591 -34.52698051 -1.33029649 -26.9921875 -3.77734375 C-17.47479754 -5.64569044 -8.27243975 -5.31622254 0 0 Z M-32.9765625 11.140625 C-33.5334375 12.006875 -34.0903125 12.873125 -34.6640625 13.765625 C-35.5303125 15.003125 -35.5303125 15.003125 -36.4140625 16.265625 C-38.79273712 22.92591394 -39.01763792 30.76316293 -35.9765625 37.265625 C-32.24161413 43.40438098 -28.31476336 46.57984085 -21.3515625 48.3828125 C-16.01856781 49.14245419 -11.32821181 48.31020962 -6.65625 45.6015625 C-1.15378952 41.33775113 2.73963018 35.73577635 3.78125 28.80078125 C4.02622104 22.32537997 3.29337555 17.0137967 -0.6640625 11.765625 C-4.46789958 7.69082966 -8.71449643 5.14479194 -14.27734375 4.4296875 C-22.01082642 4.31777024 -27.47851617 5.49398283 -32.9765625 11.140625 Z " fill="#040405" transform="translate(770.6640625,106.234375)"/>
<path d="M0 0 C2.97 0 5.94 0 9 0 C9.33 9.57 9.66 19.14 10 29 C12.97 27.02 15.94 25.04 19 23 C24.76084398 20.35961318 30.65924956 19.81283171 36.66015625 21.9453125 C43.1003118 24.96146782 46.87444949 28.07948513 49.6875 34.6875 C52.7496554 43.85950632 52.1583832 53.81166824 52.13037109 63.37133789 C52.12493401 65.58942255 52.13038625 67.8073115 52.13671875 70.02539062 C52.13605924 71.43489628 52.13478072 72.84440181 52.1328125 74.25390625 C52.13168457 75.52564697 52.13055664 76.7973877 52.12939453 78.10766602 C52 81 52 81 51 82 C48.32941149 82.14115161 45.67567762 82.04247107 43 82 C42.10301789 78.94090254 41.89424599 76.25248579 41.9375 73.0703125 C41.94620117 72.11648682 41.95490234 71.16266113 41.96386719 70.17993164 C41.97579102 69.1718042 41.98771484 68.16367676 42 67.125 C42.91450312 49.25645711 42.91450312 49.25645711 37 33 C33.13584901 30.42389934 28.52476772 30.30964022 24 31 C19.15084634 32.7578182 14.58521954 35.04032091 12.06877136 39.73864746 C10.14922515 44.79489079 9.53441632 49.26895324 9.48828125 54.65625 C9.47033005 55.44398804 9.45237885 56.23172607 9.43388367 57.04333496 C9.38023695 59.52883749 9.34603384 62.0141532 9.3125 64.5 C9.27928643 66.19794242 9.2447931 67.89586032 9.20898438 69.59375 C9.12453777 73.72903075 9.05751144 77.86426052 9 82 C6.03 82 3.06 82 0 82 C-1.20188087 78.3943574 -1.08837688 75.15494436 -1.02172852 71.4074707 C-1.01212097 70.63650055 -1.00251343 69.8655304 -0.99261475 69.07119751 C-0.95963125 66.52263233 -0.91929645 63.97423892 -0.87890625 61.42578125 C-0.8546045 59.65887559 -0.83076097 57.89196357 -0.80735779 56.12504578 C-0.74452235 51.47415934 -0.67545413 46.82338543 -0.60510254 42.17260742 C-0.53441425 37.42697271 -0.46960024 32.6812582 -0.40429688 27.93554688 C-0.27529148 18.62361023 -0.13970368 9.31178186 0 0 Z " fill="#050405" transform="translate(560,82)"/>
<path d="M0 0 C5.84416479 4.12835128 8.77596452 8.5185806 10.1953125 15.55078125 C10.4592244 18.75992329 10.4527488 21.94951334 10.42578125 25.16796875 C10.42532303 26.06573029 10.42486481 26.96349182 10.4243927 27.88845825 C10.42138732 29.77265761 10.41355283 31.65685487 10.40112305 33.54101562 C10.38273756 36.43758841 10.38061448 39.3338434 10.38085938 42.23046875 C10.37594842 44.06380487 10.37012196 45.89713882 10.36328125 47.73046875 C10.36216843 48.60017303 10.3610556 49.46987732 10.35990906 50.36593628 C10.31140158 56.43469217 10.31140158 56.43469217 9.1953125 57.55078125 C5.6953125 57.67578125 5.6953125 57.67578125 2.1953125 57.55078125 C0.12687135 55.4823401 1.00970261 51.05740672 0.984375 48.203125 C0.95628094 46.46548578 0.92761635 44.72785571 0.8984375 42.99023438 C0.85735125 40.24748233 0.82047319 37.50489641 0.79394531 34.76196289 C0.76613628 32.11698796 0.72023755 29.47279377 0.671875 26.828125 C0.66862213 26.01947495 0.66536926 25.21082489 0.66201782 24.37767029 C0.5437598 18.83129723 -0.47008368 14.60674767 -2.8046875 9.55078125 C-7.91010686 6.40898472 -14.98028706 7.03145885 -20.8046875 7.55078125 C-25.01961795 9.02970422 -27.65437348 10.58967647 -29.8046875 14.55078125 C-30.82705436 19.34469535 -30.99794849 24.09372715 -31.0859375 28.9765625 C-31.12369397 30.59309905 -31.1614545 32.20963551 -31.19921875 33.82617188 C-31.25306725 36.35878058 -31.30526156 38.89141827 -31.35693359 41.42407227 C-31.40848059 43.87917543 -31.46574824 46.33409724 -31.5234375 48.7890625 C-31.53701294 49.55253494 -31.55058838 50.31600739 -31.5645752 51.10261536 C-31.69175506 56.43784881 -31.69175506 56.43784881 -32.8046875 57.55078125 C-39.33011123 57.78806939 -39.33011123 57.78806939 -41.8046875 56.55078125 C-41.87963344 51.76769316 -41.9336596 46.98495741 -41.96948242 42.20141602 C-41.98443816 40.5789595 -42.00481027 38.95654248 -42.03100586 37.33422852 C-42.23496654 24.36472904 -42.14888846 12.7162692 -32.98828125 2.53125 C-24.09917558 -5.53096212 -10.03635461 -5.72814451 0 0 Z " fill="#060507" transform="translate(426.8046875,106.44921875)"/>
<path d="M0 0 C3.3 0.33 6.6 0.66 10 1 C10 10.24 10 19.48 10 29 C14.29 29 18.58 29 23 29 C24 32 24 32 23 37 C18.71 37 14.42 37 10 37 C10.09720064 41.0389425 10.20009228 45.077127 10.31738281 49.11547852 C10.35554288 50.48778581 10.39041796 51.86018871 10.421875 53.23266602 C10.46780682 55.2113229 10.52673637 57.18966442 10.5859375 59.16796875 C10.6173584 60.35672607 10.6487793 61.5454834 10.68115234 62.77026367 C10.99281806 65.92725119 11.57730179 68.17858164 13 71 C16.00504851 73.18192653 18.6095478 73.22080137 22.25 73.125 C23.14203125 73.10695313 24.0340625 73.08890625 24.953125 73.0703125 C25.62859375 73.04710937 26.3040625 73.02390625 27 73 C27.33 75.64 27.66 78.28 28 81 C22.59312761 83.41886396 17.64647615 83.63565103 12 82 C6.0499036 78.34766427 2.12206879 73.56807966 0.44068909 66.72297668 C-0.06082868 63.62414528 -0.1197182 60.69712572 -0.11352539 57.55737305 C-0.11344986 56.27642258 -0.11337433 54.99547211 -0.11329651 53.67570496 C-0.10819065 52.28770915 -0.10297467 50.89971375 -0.09765625 49.51171875 C-0.09578975 48.08396962 -0.09436694 46.65621985 -0.09336853 45.22846985 C-0.08956165 41.48186455 -0.07974707 37.7352984 -0.06866455 33.9887085 C-0.05841102 30.16109751 -0.05386248 26.33348016 -0.04882812 22.50585938 C-0.03812307 15.00388846 -0.02106873 7.50194973 0 0 Z " fill="#040304" transform="translate(521,81)"/>
<path d="M0 0 C0.99 0.66 1.98 1.32 3 2 C1.125 7.75 1.125 7.75 0 10 C-1.85546875 10.38671875 -1.85546875 10.38671875 -4.1875 10.6875 C-8.78027612 11.62360723 -10.87498154 13.28665845 -13.80859375 16.85546875 C-16.82013692 22.27624646 -17.30625471 28.00346843 -17.37890625 34.0859375 C-17.39590073 34.82832672 -17.4128952 35.57071594 -17.43040466 36.33560181 C-17.48308738 38.68198394 -17.52367056 41.02835105 -17.5625 43.375 C-17.60644061 45.7429906 -17.65303586 48.11084645 -17.70530701 50.47866821 C-17.73726307 51.94647984 -17.76415362 53.41441206 -17.78553772 54.88241577 C-17.88815612 59.88815612 -17.88815612 59.88815612 -19 61 C-21.67058851 61.14115161 -24.32432238 61.04247107 -27 61 C-27.14984134 55.66564844 -27.25790828 50.33255736 -27.32958984 44.99658203 C-27.35951167 43.18679429 -27.4002655 41.37714837 -27.45263672 39.56787109 C-27.82788965 26.25742902 -26.84944115 16.30221585 -17.5625 5.9375 C-12.31787936 1.2115781 -7.1789563 -0.69028426 0 0 Z " fill="#050506" transform="translate(650,103)"/>
<path d="M0 0 C1 1 1 1 1.12025452 3.36012268 C1.1169236 4.92898476 1.1169236 4.92898476 1.11352539 6.52954102 C1.11344986 7.71068985 1.11337433 8.89183868 1.11329651 10.10877991 C1.10813522 11.3941716 1.10297394 12.67956329 1.09765625 14.00390625 C1.0962413 15.31205795 1.09482635 16.62020966 1.09336853 17.96800232 C1.0895441 21.45162859 1.07971446 24.93521339 1.06866455 28.41882324 C1.05844882 31.97126708 1.05387056 35.52371759 1.04882812 39.07617188 C1.03809212 46.05079832 1.0210166 53.02539717 1 60 C-4.625 61.125 -4.625 61.125 -8 60 C-8 40.53 -8 21.06 -8 1 C-5.26752652 -0.36623674 -3.01801098 -0.128426 0 0 Z " fill="#030304" transform="translate(371,104)"/>
<path d="M0 0 C0.99 0.33 1.98 0.66 3 1 C3.06058594 2.01320313 3.12117187 3.02640625 3.18359375 4.0703125 C3.26806704 5.42188514 3.35271157 6.77344709 3.4375 8.125 C3.47681641 8.79015625 3.51613281 9.4553125 3.55664062 10.140625 C3.81241182 14.15426521 4.33221062 18.03815712 5 22 C5 23.32 5 24.64 5 26 C6.73956658 27.73956658 9.1936622 27.37190386 11.5625 27.5625 C12.57441406 27.64628906 13.58632813 27.73007813 14.62890625 27.81640625 C15.80259766 27.90728516 15.80259766 27.90728516 17 28 C16.67 29.32 16.34 30.64 16 32 C8.25 32.125 8.25 32.125 6 31 C4.08147345 38.05639878 3.94193119 44.05271018 4.5 51.3125 C4.64563451 53.24535102 4.78145591 55.17897287 4.90625 57.11328125 C4.97134766 57.95673096 5.03644531 58.80018066 5.10351562 59.66918945 C4.98812689 62.26734097 4.31620459 63.78257863 3 66 C1.68 65.34 0.36 64.68 -1 64 C-1.1771335 56.24628318 -1.34307692 48.49241457 -1.49477577 40.73816299 C-1.56556812 37.13747173 -1.64019893 33.53694572 -1.72363281 29.93652344 C-1.80402365 26.46129993 -1.87429121 22.98600507 -1.93757248 19.51042938 C-1.976076 17.54051507 -2.02503494 15.57081413 -2.0741272 13.60113525 C-2.10438492 11.79972076 -2.10438492 11.79972076 -2.13525391 9.96191406 C-2.15746002 8.90490295 -2.17966614 7.84789185 -2.20254517 6.7588501 C-1.99795024 3.97208041 -1.44048461 2.36420185 0 0 Z " fill="#100E12" transform="translate(525,84)"/>
<path d="M0 0 C0.33 0.66 0.66 1.32 1 2 C1.99 1.67 2.98 1.34 4 1 C5.05781904 4.50886314 5.23285132 7.84454476 5.3125 11.5 C5.34988281 12.6240625 5.38726563 13.748125 5.42578125 14.90625 C4.91767228 18.59819773 3.85189516 19.70498377 1 22 C0.01 21.67 -0.98 21.34 -2 21 C-2.12375 20.195625 -2.2475 19.39125 -2.375 18.5625 C-2.58125 17.716875 -2.7875 16.87125 -3 16 C-3.66 15.67 -4.32 15.34 -5 15 C-5.2475 14.401875 -5.495 13.80375 -5.75 13.1875 C-6.94045027 10.72198651 -6.94045027 10.72198651 -9.9375 9.0625 C-13.08167763 6.94499261 -14.32882685 5.3423463 -16 2 C-15.34 1.67 -14.68 1.34 -14 1 C-11.875 1.9375 -11.875 1.9375 -10 3 C-10 3.66 -10 4.32 -10 5 C-7.06279492 6.52299523 -4.0831351 7.80100302 -1 9 C-1 8.236875 -1 7.47375 -1 6.6875 C-1 1 -1 1 0 0 Z " fill="#0A0A0C" transform="translate(851,104)"/>
<path d="M0 0 C1.48712292 5.19005137 1.44835347 10.51174047 1.6875 15.875 C1.74744141 16.95136719 1.80738281 18.02773437 1.86914062 19.13671875 C2.11157491 24.52340919 2.28534322 28.97399613 0 34 C-1.32 34 -2.64 34 -4 34 C-6.60504486 26.18486542 -5.05335624 16.39395255 -4.625 8.1875 C-4.59422363 7.48794189 -4.56344727 6.78838379 -4.53173828 6.06762695 C-4.43005851 4.37219061 -4.22447778 2.68358335 -4 1 C-2 0 -2 0 0 0 Z " fill="#120F14" transform="translate(348,127)"/>
<path d="M0 0 C0.99 0 1.98 0 3 0 C3 11.88 3 23.76 3 36 C4.32 36 5.64 36 7 36 C7 26.1 7 16.2 7 6 C7.66 6 8.32 6 9 6 C9 16.89 9 27.78 9 39 C6.36 39 3.72 39 1 39 C0 38 0 38 -0.11352539 34.39819336 C-0.11336625 32.79540144 -0.10767063 31.1926044 -0.09765625 29.58984375 C-0.0962413 28.74780899 -0.09482635 27.90577423 -0.09336853 27.03822327 C-0.08775263 24.33794665 -0.07519748 21.63775172 -0.0625 18.9375 C-0.05748705 17.11132932 -0.05292379 15.28515734 -0.04882812 13.45898438 C-0.03777804 8.97262458 -0.02050279 4.48632616 0 0 Z " fill="#040205" transform="translate(263,125)"/>
<path d="M0 0 C-0.11859375 0.556875 -0.2371875 1.11375 -0.359375 1.6875 C-0.48828125 2.450625 -0.6171875 3.21375 -0.75 4 C-0.88921875 4.7425 -1.0284375 5.485 -1.171875 6.25 C-0.91343736 10.38500231 1.04195639 13.40834177 3 17 C3.71925358 18.42421306 4.43282975 19.85130789 5.140625 21.28125 C5.48867187 21.97734375 5.83671875 22.6734375 6.1953125 23.390625 C7.796875 26.59375 9.3984375 29.796875 11 33 C10.01 33 9.02 33 8 33 C8 32.01 8 31.02 8 30 C7.34 30 6.68 30 6 30 C5.54560547 28.89591797 5.54560547 28.89591797 5.08203125 27.76953125 C2.68295261 22.18152346 0.60557024 18.10767076 -4 14 C-4.28875 13.29875 -4.5775 12.5975 -4.875 11.875 C-6.68667778 8.85553704 -9.83961444 8.32161578 -13 7 C-13.33 6.01 -13.66 5.02 -14 4 C-12.88625 3.525625 -11.7725 3.05125 -10.625 2.5625 C-4.41071429 -0.11607143 -4.41071429 -0.11607143 0 0 Z " fill="#0A090A" transform="translate(120,65)"/>
<path d="M0 0 C2.3125 1.0625 2.3125 1.0625 4 3 C4.56855139 6.90879079 4.54713574 9.08810709 2.5 12.5 C-1.26652526 14.75991516 -3.75657498 13.848685 -8 13 C-9.58720201 4.9259724 -9.58720201 4.9259724 -7.375 1.4375 C-4.5515597 -0.27142439 -3.24282574 -0.5674945 0 0 Z " fill="#050405" transform="translate(370,81)"/>
<path d="M0 0 C0.33 0 0.66 0 1 0 C1.31090196 3.93212972 1.61383478 7.8647844 1.90942383 11.7980957 C2.06105285 13.79345622 2.21897295 15.78833541 2.37695312 17.78320312 C2.47041016 19.03681641 2.56386719 20.29042969 2.66015625 21.58203125 C2.74918213 22.73936768 2.83820801 23.8967041 2.92993164 25.08911133 C3 28 3 28 2 31 C1.01 31.33 0.02 31.66 -1 32 C-1.12375 31.360625 -1.2475 30.72125 -1.375 30.0625 C-1.58125 29.381875 -1.7875 28.70125 -2 28 C-2.66 27.67 -3.32 27.34 -4 27 C-3.67 26.67 -3.34 26.34 -3 26 C-2.96776127 22.30636302 -3.06875758 18.62219364 -3.16015625 14.9296875 C-3.03577248 11.87773442 -2.8022563 9.9466665 -1.93359375 7.1328125 C-0.64991161 4.13015177 -0.64991161 4.13015177 -2 2 C-1.34 2 -0.68 2 0 2 C0 1.34 0 0.68 0 0 Z " fill="#100D11" transform="translate(608,130)"/>
<path d="M0 0 C0.99 0 1.98 0 3 0 C3 8.25 3 16.5 3 25 C1.68 25 0.36 25 -1 25 C-2.6951391 17.15998166 -2.53722153 8.85691003 -1 1 C-0.67 0.67 -0.34 0.34 0 0 Z " fill="#17151A" transform="translate(267,136)"/>
<path d="M0 0 C5.76868607 2.45476003 5.76868607 2.45476003 6.875 5.0625 C6.95954431 6.37293681 7 7.68683879 7 9 C7.99 8.67 8.98 8.34 10 8 C10.33 10.31 10.66 12.62 11 15 C10.01 14.67 9.02 14.34 8 14 C8 13.34 8 12.68 8 12 C7.01 11.67 6.02 11.34 5 11 C5 10.34 5 9.68 5 9 C4.01 9 3.02 9 2 9 C2 8.34 2 7.68 2 7 C0.68 6.34 -0.64 5.68 -2 5 C-2 2 -2 2 0 0 Z " fill="#090909" transform="translate(493,105)"/>
<path d="M0 0 C0.99 0.33 1.98 0.66 3 1 C3 5.95 3 10.9 3 16 C1.68 16 0.36 16 -1 16 C-1.309375 15.21625 -1.61875 14.4325 -1.9375 13.625 C-2.92875038 11.07669872 -2.92875038 11.07669872 -4 9 C-3.22265625 6.8359375 -3.22265625 6.8359375 -2.0625 4.375 C-1.68222656 3.55773437 -1.30195313 2.74046875 -0.91015625 1.8984375 C-0.60980469 1.27195313 -0.30945313 0.64546875 0 0 Z " fill="#141216" transform="translate(389,145)"/>
<path d="M0 0 C0.66 0 1.32 0 2 0 C3.15025364 3.86156579 3.6118851 5.81011881 1.73046875 9.46875 C0.21910181 11.70571465 -1.33676216 13.87394816 -3 16 C-5.31 15.67 -7.62 15.34 -10 15 C-9.3125 13.125 -9.3125 13.125 -8 11 C-6.34795544 10.29788106 -4.68076231 9.63028587 -3 9 C-0.87491756 5.81237635 -0.4979837 3.73487777 0 0 Z " fill="#0D0C0F" transform="translate(217,133)"/>
<path d="M0 0 C-1.55466197 4.08332902 -4.25087844 6.08208993 -7.625 8.75 C-8.62789062 9.54921875 -9.63078125 10.3484375 -10.6640625 11.171875 C-11.43492187 11.77515625 -12.20578125 12.3784375 -13 13 C-13.66 12.67 -14.32 12.34 -15 12 C-7.46511628 0 -7.46511628 0 0 0 Z " fill="#0E0D0E" transform="translate(583,107)"/>
<path d="M0 0 C2.51235884 1.32229412 4.55434266 2.42701199 6.3125 4.6875 C7.36184721 8.21712242 7.7990746 11.41082325 7 15 C5.28466807 17.64779435 3.28022162 19.82836036 1 22 C0.34 21.67 -0.32 21.34 -1 21 C1.75 16.125 1.75 16.125 4 15 C4.25380981 9.38779959 4.25380981 9.38779959 3 4 C2.01 3.34 1.02 2.68 0 2 C0 1.34 0 0.68 0 0 Z " fill="#010102" transform="translate(215,127)"/>
<path d="M0 0 C1.98 0.99 3.96 1.98 6 3 C4.22555028 5.24606427 3.41647515 5.95081002 0.51953125 6.29296875 C-0.82044922 6.24076172 -0.82044922 6.24076172 -2.1875 6.1875 C-3.53908203 6.14689453 -3.53908203 6.14689453 -4.91796875 6.10546875 C-5.60503906 6.07066406 -6.29210937 6.03585938 -7 6 C-7 5.01 -7 4.02 -7 3 C-5.5459375 2.5359375 -5.5459375 2.5359375 -4.0625 2.0625 C-1.15934208 1.30476658 -1.15934208 1.30476658 0 0 Z " fill="#0B0B0B" transform="translate(541,155)"/>
<path d="M0 0 C3.04755711 2.03170474 3.49413604 2.53322908 4.82421875 5.6953125 C5.28344727 6.76845703 5.28344727 6.76845703 5.75195312 7.86328125 C6.06068359 8.60964844 6.36941406 9.35601562 6.6875 10.125 C7.00783203 10.87910156 7.32816406 11.63320312 7.65820312 12.41015625 C8.44688417 14.27003096 9.22451422 16.13458488 10 18 C9.01 17.67 8.02 17.34 7 17 C7 16.01 7 15.02 7 14 C6.34 14 5.68 14 5 14 C4.15973604 12.23244474 3.32801278 10.46082737 2.5 8.6875 C2.0359375 7.70136719 1.571875 6.71523437 1.09375 5.69921875 C0 3 0 3 0 0 Z " fill="#151415" transform="translate(121,81)"/>
<path d="M0 0 C-0.33 0.99 -0.66 1.98 -1 3 C-2.32 3 -3.64 3 -5 3 C-6.68756133 3.96432076 -8.35666496 4.96210419 -10 6 C-10.66 6 -11.32 6 -12 6 C-11.72684137 2.63104351 -11.38658365 1.34240266 -8.8125 -0.9375 C-5.16846653 -2.31413487 -3.48689861 -1.54072264 0 0 Z " fill="#0F0F0F" transform="translate(89,114)"/>
<path d="M0 0 C-0.33 0.99 -0.66 1.98 -1 3 C-2.0725 3.144375 -3.145 3.28875 -4.25 3.4375 C-6.91662949 3.83749442 -9.41399729 4.27591924 -12 5 C-12 3.68 -12 2.36 -12 1 C-8.00439392 -1.83022097 -4.57262677 -0.76210446 0 0 Z " fill="#0B0B0D" transform="translate(672,129)"/>
<path d="M0 0 C0.99 0 1.98 0 3 0 C3.33 1.32 3.66 2.64 4 4 C4.99 3.67 5.98 3.34 7 3 C7.33 5.31 7.66 7.62 8 10 C7.01 9.67 6.02 9.34 5 9 C5 8.34 5 7.68 5 7 C4.01 6.67 3.02 6.34 2 6 C2 5.34 2 4.68 2 4 C1.34 4 0.68 4 0 4 C0 2.68 0 1.36 0 0 Z " fill="#141416" transform="translate(496,110)"/>
<path d="M0 0 C2.1875 0.3125 2.1875 0.3125 4 1 C2.55527654 4.80881639 0.67396929 6.29742886 -3 8 C-3.99 7.67 -4.98 7.34 -6 7 C-5.34 6.34 -4.68 5.68 -4 5 C-3.67 4.34 -3.34 3.68 -3 3 C-1.6875 1.3125 -1.6875 1.3125 0 0 Z " fill="#0D0D0C" transform="translate(767,151)"/>
<path d="M0 0 C1 3 1 3 -0.375 5.8125 C-0.91125 6.864375 -1.4475 7.91625 -2 9 C-2.70758326 12.2366963 -2.70758326 12.2366963 -3 15 C-3.66 15 -4.32 15 -5 15 C-5.67081836 8.56014376 -3.75430238 5.16216577 0 0 Z " fill="#020202" transform="translate(132,115)"/>
<path d="M0 0 C0.99 0.33 1.98 0.66 3 1 C1.50902342 4.7952131 -0.75700849 6.61042731 -4 9 C-4.66 8.67 -5.32 8.34 -6 8 C-2.25 2.25 -2.25 2.25 0 0 Z " fill="#161516" transform="translate(574,111)"/>
<path d="M0 0 C0.99 0.61875 1.98 1.2375 3 1.875 C6.89746801 4.12261959 10.6118123 5.07617101 15 6 C15 6.33 15 6.66 15 7 C9.20853178 7.36196676 5.3139263 6.38210489 0 4 C-0.33 3.34 -0.66 2.68 -1 2 C-0.67 1.34 -0.34 0.68 0 0 Z " fill="#030305" transform="translate(133,143)"/>
<path d="M0 0 C4.55015893 1.51671964 6.50057264 5.16891053 9 9 C8.67 9.66 8.34 10.32 8 11 C4.38061905 8.35883012 2.01293477 6.02586954 0 2 C0 1.34 0 0.68 0 0 Z " fill="#131216" transform="translate(120,143)"/>
<path d="M0 0 C0.99 0.33 1.98 0.66 3 1 C2.21625 1.20625 1.4325 1.4125 0.625 1.625 C-2.29961921 2.78533975 -2.29961921 2.78533975 -3.125 6 C-3.41375 6.99 -3.7025 7.98 -4 9 C-4.99 9.66 -5.98 10.32 -7 11 C-6.8617855 8.02838827 -6.65801832 5.78486522 -4.703125 3.453125 C-3.125 2.0625 -3.125 2.0625 0 0 Z " fill="#010103" transform="translate(80,112)"/>
<path d="M0 0 C0 0.66 0 1.32 0 2 C-1.0725 2.12375 -2.145 2.2475 -3.25 2.375 C-6.37863615 2.89643936 -8.33480424 3.40088254 -11 5 C-11.66 4.34 -12.32 3.68 -13 3 C-8.50235477 -1.63819664 -5.96030685 -1.2122658 0 0 Z " fill="#0E0E0E" transform="translate(110,172)"/>
<path d="M0 0 C1.65 0.99 3.3 1.98 5 3 C4.67 4.65 4.34 6.3 4 8 C2.68 8 1.36 8 0 8 C0 5.36 0 2.72 0 0 Z " fill="#1A171B" transform="translate(344,153)"/>
<path d="M0 0 C2.31 0.33 4.62 0.66 7 1 C5.71502463 3.56995074 4.50087627 3.90434463 1.9375 5.125 C1.20402344 5.47820312 0.47054687 5.83140625 -0.28515625 6.1953125 C-0.85105469 6.46085938 -1.41695312 6.72640625 -2 7 C-2.33 6.34 -2.66 5.68 -3 5 C-1.5625 2.375 -1.5625 2.375 0 0 Z " fill="#131313" transform="translate(205,127)"/>
<path d="M0 0 C0.66 0 1.32 0 2 0 C2 0.66 2 1.32 2 2 C2.99 2.33 3.98 2.66 5 3 C5 3.99 5 4.98 5 6 C4.34 6 3.68 6 3 6 C2.67 6.66 2.34 7.32 2 8 C0.4375 5.6875 0.4375 5.6875 -1 3 C-0.67 2.01 -0.34 1.02 0 0 Z " fill="#0E0C10" transform="translate(386,151)"/>
<path d="M0 0 C3.61569905 2.63848309 6.02835214 4.95293333 8 9 C8 9.99 8 10.98 8 12 C6.84545838 10.75803878 5.70167438 9.50607155 4.5625 8.25 C3.92441406 7.55390625 3.28632812 6.8578125 2.62890625 6.140625 C1.00918675 4.01207275 0.41732744 2.60976595 0 0 Z " fill="#040306" transform="translate(118,143)"/>
<path d="M0 0 C-0.33 0.66 -0.66 1.32 -1 2 C-3.64 2 -6.28 2 -9 2 C-9 1.01 -9 0.02 -9 -1 C-5.79937313 -2.60031344 -3.27728194 -1.03173691 0 0 Z " fill="#141415" transform="translate(543,159)"/>
<path d="M0 0 C3 2 3 2 3.51171875 4.1640625 C3.56972656 4.97617188 3.62773438 5.78828125 3.6875 6.625 C3.75324219 7.44226563 3.81898437 8.25953125 3.88671875 9.1015625 C3.92410156 9.72804687 3.96148437 10.35453125 4 11 C3.01 11.495 3.01 11.495 2 12 C0.40861915 7.82262526 -0.21278058 4.46839215 0 0 Z " fill="#010103" transform="translate(115,131)"/>
<path d="M0 0 C0.99 0.99 1.98 1.98 3 3 C2.67 3.99 2.34 4.98 2 6 C2.33 6.99 2.66 7.98 3 9 C1.0625 8.3125 1.0625 8.3125 -1 7 C-1.875 4.5 -1.875 4.5 -2 2 C-1.34 1.34 -0.68 0.68 0 0 Z " fill="#0E0E0F" transform="translate(301,111)"/>
<path d="M0 0 C2.4375 0.375 2.4375 0.375 5 1 C5.33 1.66 5.66 2.32 6 3 C5.2575 3.144375 4.515 3.28875 3.75 3.4375 C1.47972261 3.90187492 -0.75759479 4.41863569 -3 5 C-2.01 3.35 -1.02 1.7 0 0 Z " fill="#0A0A0A" transform="translate(484,105)"/>
<path d="M0 0 C1.42944945 2.35438733 2.08661261 3.48032433 1.625 6.25 C1.41875 6.8275 1.2125 7.405 1 8 C-0.98 8.33 -2.96 8.66 -5 9 C-5.33 7.68 -5.66 6.36 -6 5 C-5.34 5 -4.68 5 -4 5 C-4 5.66 -4 6.32 -4 7 C-2.68 7 -1.36 7 0 7 C0 4.69 0 2.38 0 0 Z " fill="#0B090D" transform="translate(270,154)"/>
<path d="M0 0 C0 4.03066816 -1.67283027 5.78303008 -4 9 C-4.66 9.66 -5.32 10.32 -6 11 C-6.71484375 9.234375 -6.71484375 9.234375 -7 7 C-5.56640625 5.078125 -5.56640625 5.078125 -3.5625 3.25 C-2.90378906 2.63640625 -2.24507813 2.0228125 -1.56640625 1.390625 C-1.04949219 0.93171875 -0.53257812 0.4728125 0 0 Z " fill="#030202" transform="translate(500,145)"/>
<path d="M0 0 C4.41889613 1.35021826 6.34345343 3.26115668 9 7 C8.01 7 7.02 7 6 7 C5.67 6.01 5.34 5.02 5 4 C1.99152582 2.77479736 1.99152582 2.77479736 -1 2 C-0.67 1.34 -0.34 0.68 0 0 Z " fill="#020202" transform="translate(163,100)"/>
<path d="M0 0 C-3.90898316 2.60598877 -6.33080658 2.70354328 -11 3 C-11.66 2.34 -12.32 1.68 -13 1 C-11.39796533 0.63631108 -9.79325797 0.28438048 -8.1875 -0.0625 C-7.29417969 -0.25972656 -6.40085938 -0.45695313 -5.48046875 -0.66015625 C-3 -1 -3 -1 0 0 Z " fill="#030103" transform="translate(159,161)"/>
<path d="M0 0 C0.61875 0.33 1.2375 0.66 1.875 1 C3.91018344 2.14193235 3.91018344 2.14193235 6 2 C5.34 3.32 4.68 4.64 4 6 C2.35 6 0.7 6 -1 6 C-0.67 4.02 -0.34 2.04 0 0 Z " fill="#010001" transform="translate(211,135)"/>
<path d="M0 0 C0.66 0.33 1.32 0.66 2 1 C2.4140625 3.06640625 2.4140625 3.06640625 2.625 5.5625 C2.69976562 6.38878906 2.77453125 7.21507813 2.8515625 8.06640625 C2.92503906 9.02353516 2.92503906 9.02353516 3 10 C2.67 9.34 2.34 8.68 2 8 C1.34 8 0.68 8 0 8 C-1.125 2.25 -1.125 2.25 0 0 Z " fill="#030303" transform="translate(179,119)"/>
<path d="M0 0 C0.66 0 1.32 0 2 0 C2.33 0.66 2.66 1.32 3 2 C3.66 2 4.32 2 5 2 C5.33 2.99 5.66 3.98 6 5 C4.02 5 2.04 5 0 5 C-0.33 4.34 -0.66 3.68 -1 3 C-0.67 2.01 -0.34 1.02 0 0 Z " fill="#0F0F10" transform="translate(366,157)"/>
<path d="M0 0 C2.0625 0.75 2.0625 0.75 4 2 C4.33 2.99 4.66 3.98 5 5 C3.68 5 2.36 5 1 5 C-0.75 3 -0.75 3 -2 1 C-1.34 0.67 -0.68 0.34 0 0 Z " fill="#0C0C0E" transform="translate(101,64)"/>
<path d="M0 0 C1.98 1.65 3.96 3.3 6 5 C5.67 5.99 5.34 6.98 5 8 C2.20127563 5.47211993 0.54226981 3.79588866 0 0 Z " fill="#17161A" transform="translate(842,109)"/>
<path d="M0 0 C2.31 0 4.62 0 7 0 C6.67 1.32 6.34 2.64 6 4 C5.01 3.67 4.02 3.34 3 3 C3 2.34 3 1.68 3 1 C1.68 1.33 0.36 1.66 -1 2 C-0.67 1.34 -0.34 0.68 0 0 Z " fill="#181619" transform="translate(535,112)"/>
<path d="M0 0 C1.98 0.495 1.98 0.495 4 1 C4 1.99 4 2.98 4 4 C2.35 4.33 0.7 4.66 -1 5 C-0.67 3.35 -0.34 1.7 0 0 Z " fill="#0D0D0D" transform="translate(101,49)"/>
<path d="M0 0 C0.33 0 0.66 0 1 0 C1.33 3.3 1.66 6.6 2 10 C1.01 10.33 0.02 10.66 -1 11 C-1 7.21293268 -0.5745952 3.73486879 0 0 Z " fill="#1B171B" transform="translate(608,151)"/>
<path d="M0 0 C0.598125 0.350625 1.19625 0.70125 1.8125 1.0625 C-2.9375 4.0625 -2.9375 4.0625 -5.1875 4.0625 C-5.1875 2.7425 -5.1875 1.4225 -5.1875 0.0625 C-2.1875 -0.9375 -2.1875 -0.9375 0 0 Z " fill="#131313" transform="translate(665.1875,129.9375)"/>
<path d="M0 0 C0.33 0.66 0.66 1.32 1 2 C1.99 2.33 2.98 2.66 4 3 C4.6875 5.0625 4.6875 5.0625 5 7 C4.01 7.495 4.01 7.495 3 8 C2.566875 7.0409375 2.566875 7.0409375 2.125 6.0625 C1.17176549 3.84793921 1.17176549 3.84793921 -1 3 C-0.67 2.01 -0.34 1.02 0 0 Z " fill="#0B0B0D" transform="translate(769,112)"/>
<path d="M0 0 C1.65 0 3.3 0 5 0 C5 0.33 5 0.66 5 1 C3.35 1 1.7 1 0 1 C0 0.67 0 0.34 0 0 Z " fill="#000000" transform="translate(522,80)"/>
<path d="M0 0 C1 4 1 4 1 4 Z " fill="#000000" transform="translate(513,84)"/>
<path d="" fill="#000000" transform="translate(0,0)"/>
<path d="" fill="#FFFFFF" transform="translate(0,0)"/>
<path d="" fill="#FFFFFF" transform="translate(0,0)"/>
<path d="" fill="#FFFFFF" transform="translate(0,0)"/>
<path d="" fill="#FFFFFF" transform="translate(0,0)"/>
<path d="" fill="#FFFFFF" transform="translate(0,0)"/>
<path d="" fill="#FFFFFF" transform="translate(0,0)"/>
<path d="" fill="#FFFFFF" transform="translate(0,0)"/>
<path d="" fill="#FFFFFF" transform="translate(0,0)"/>
<path d="" fill="#FFFFFF" transform="translate(0,0)"/>
<path d="" fill="#FFFFFF" transform="translate(0,0)"/>
<path d="" fill="#FFFFFF" transform="translate(0,0)"/>
<path d="" fill="#FFFFFF" transform="translate(0,0)"/>
<path d="" fill="#FFFFFF" transform="translate(0,0)"/>
<path d="" fill="#FFFFFF" transform="translate(0,0)"/>
<path d="" fill="#FFFFFF" transform="translate(0,0)"/>
<path d="" fill="#FFFFFF" transform="translate(0,0)"/>
<path d="" fill="#FFFFFF" transform="translate(0,0)"/>
<path d="" fill="#FFFFFF" transform="translate(0,0)"/>
<path d="" fill="#FFFFFF" transform="translate(0,0)"/>
<path d="" fill="#FFFFFF" transform="translate(0,0)"/>
<path d="" fill="#FFFFFF" transform="translate(0,0)"/>
<path d="" fill="#FFFFFF" transform="translate(0,0)"/>
<path d="" fill="#FFFFFF" transform="translate(0,0)"/>
<path d="" fill="#FFFFFF" transform="translate(0,0)"/>
<path d="" fill="#FFFFFF" transform="translate(0,0)"/>
<path d="" fill="#FFFFFF" transform="translate(0,0)"/>
<path d="" fill="#FFFFFF" transform="translate(0,0)"/>
<path d="" fill="#FFFFFF" transform="translate(0,0)"/>
<path d="" fill="#FFFFFF" transform="translate(0,0)"/>
<path d="" fill="#FFFFFF" transform="translate(0,0)"/>
<path d="" fill="#FFFFFF" transform="translate(0,0)"/>
<path d="" fill="#FFFFFF" transform="translate(0,0)"/>
<path d="" fill="#FFFFFF" transform="translate(0,0)"/>
<path d="" fill="#FFFFFF" transform="translate(0,0)"/>
<path d="" fill="#FFFFFF" transform="translate(0,0)"/>
<path d="" fill="#FFFFFF" transform="translate(0,0)"/>
<path d="" fill="#FFFFFF" transform="translate(0,0)"/>
<path d="" fill="#FFFFFF" transform="translate(0,0)"/>
<path d="" fill="#FFFFFF" transform="translate(0,0)"/>
<path d="" fill="#000000" transform="translate(0,0)"/>
<path d="" fill="#000000" transform="translate(0,0)"/>
<path d="" fill="#FFFFFF" transform="translate(0,0)"/>
<path d="" fill="#000000" transform="translate(0,0)"/>
<path d="" fill="#000000" transform="translate(0,0)"/>
<path d="" fill="#FFFFFF" transform="translate(0,0)"/>
<path d="" fill="#000000" transform="translate(0,0)"/>
<path d="" fill="#000000" transform="translate(0,0)"/>
<path d="" fill="#000000" transform="translate(0,0)"/>
<path d="" fill="#FFFFFF" transform="translate(0,0)"/>
<path d="" fill="#FFFFFF" transform="translate(0,0)"/>
<path d="" fill="#000000" transform="translate(0,0)"/>
<path d="" fill="#FFFFFF" transform="translate(0,0)"/>
<path d="" fill="#FFFFFF" transform="translate(0,0)"/>
<path d="" fill="#FFFFFF" transform="translate(0,0)"/>
<path d="" fill="#FFFFFF" transform="translate(0,0)"/>
<path d="" fill="#FFFFFF" transform="translate(0,0)"/>
<path d="" fill="#FFFFFF" transform="translate(0,0)"/>
<path d="" fill="#FFFFFF" transform="translate(0,0)"/>
<path d="" fill="#FFFFFF" transform="translate(0,0)"/>
<path d="" fill="#FFFFFF" transform="translate(0,0)"/>
<path d="" fill="#FFFFFF" transform="translate(0,0)"/>
<path d="" fill="#FFFFFF" transform="translate(0,0)"/>
<path d="" fill="#FFFFFF" transform="translate(0,0)"/>
<path d="" fill="#FFFFFF" transform="translate(0,0)"/>
<path d="" fill="#000000" transform="translate(0,0)"/>
<path d="" fill="#FFFFFF" transform="translate(0,0)"/>
<path d="" fill="#FFFFFF" transform="translate(0,0)"/>
<path d="" fill="#FFFFFF" transform="translate(0,0)"/>
<path d="" fill="#FFFFFF" transform="translate(0,0)"/>
<path d="" fill="#FFFFFF" transform="translate(0,0)"/>
<path d="" fill="#FFFFFF" transform="translate(0,0)"/>
<path d="" fill="#FFFFFF" transform="translate(0,0)"/>
<path d="" fill="#FFFFFF" transform="translate(0,0)"/>
<path d="" fill="#FFFFFF" transform="translate(0,0)"/>
<path d="" fill="#FFFFFF" transform="translate(0,0)"/>
<path d="" fill="#FFFFFF" transform="translate(0,0)"/>
<path d="" fill="#FFFFFF" transform="translate(0,0)"/>
<path d="" fill="#FFFFFF" transform="translate(0,0)"/>
<path d="" fill="#FFFFFF" transform="translate(0,0)"/>
<path d="" fill="#FFFFFF" transform="translate(0,0)"/>
<path d="" fill="#FFFFFF" transform="translate(0,0)"/>
<path d="" fill="#FFFFFF" transform="translate(0,0)"/>
</svg>
