<?xml version="1.0" encoding="UTF-8"?>
<svg version="1.1" xmlns="http://www.w3.org/2000/svg" width="196" height="191">
<path d="M0 0 C4.69994029 1.71728588 7.20959499 3.86606666 10 8 C11.23761263 11.7128379 11.57098209 15.14221077 11 19 C9.71203834 21.02951535 8.38442 23.03501678 7 25 C7.38873355 28.06684961 8.66650111 30.45227411 10.1796875 33.1171875 C10.61410156 33.88933594 11.04851562 34.66148438 11.49609375 35.45703125 C12.17865234 36.65392578 12.17865234 36.65392578 12.875 37.875 C15.70033352 42.86615115 18.49441645 47.83949349 21 53 C22.60875 52.505 22.60875 52.505 24.25 52 C34.8673352 49.44362931 44.40358145 50.74101518 54 56 C61.3630257 61.52498826 66.96644745 68.87639539 68.51953125 78.078125 C68.77273625 80.71145704 68.89832605 83.35647719 69 86 C74.61 86.66 80.22 87.32 86 88 C86.66 86.35 87.32 84.7 88 83 C91.37929819 80.6423501 93.36832409 79.98872007 97.5 80.0625 C102.02911582 81.27565602 105.43970683 83.01417232 108.375 86.75 C109.3523507 90.26846253 109.78133965 93.4376209 109 97 C106.92499561 100.32255304 104.53431872 103.23284064 101 105 C97.25004517 105.52499368 93.58805413 105.80572852 90.14453125 104.05859375 C86.85300487 101.46600877 85.30271127 98.90813382 84 95 C81.0686117 93.53430585 78.11367734 93.37913782 74.875 92.9375 C73.59367187 92.76089844 72.31234375 92.58429688 70.9921875 92.40234375 C70.00476563 92.26957031 69.01734375 92.13679688 68 92 C67.85304688 92.556875 67.70609375 93.11375 67.5546875 93.6875 C64.5614988 103.87122246 59.20267169 109.83358782 50 115 C40.84221287 119.65922503 33.71605998 119.20270925 24 117 C23.35554932 116.7745752 22.71109863 116.54915039 22.04711914 116.31689453 C19.99134113 115.78667386 19.99134113 115.78667386 18.33666992 116.90527344 C16.585317 118.49078157 14.86421372 120.08520062 13.1875 121.75 C12.291521 122.63776123 12.291521 122.63776123 11.37744141 123.54345703 C8.71247529 126.39959718 7.14243848 128.15822073 6.48046875 132.0703125 C6.8327466 134.87031291 6.8327466 134.87031291 7.49609375 137.5625 C8.33738015 141.63197839 7.16396675 143.50973105 5 147 C1.13824177 151.22954473 -2.14793611 152.87420846 -7.7578125 153.1953125 C-12.97907048 152.74049909 -16.01755636 150.08320709 -19.4375 146.3125 C-21.45876794 142.02741196 -21.81940711 138.65724245 -21 134 C-18.6369136 129.18293927 -15.81706073 126.3630864 -11 124 C-7.28260461 123.54098248 -3.62174939 123.43920435 -0.05419922 124.67285156 C0.96262939 124.83479004 0.96262939 124.83479004 2 125 C4.29016466 123.08065216 6.23281698 121.23652142 8.25 119.0625 C9.08144531 118.1972168 9.08144531 118.1972168 9.9296875 117.31445312 C11.29794145 115.88722271 12.6505038 114.44497942 14 113 C12.7020329 110.14447237 11.30126127 108.11891706 9.125 105.875 C3.53081767 99.48556626 2 93.40724996 2 85 C-4.27 84.67 -10.54 84.34 -17 84 C-17.33 85.32 -17.66 86.64 -18 88 C-21.20021904 90.74304489 -23.29823679 91.9122796 -27.5 92.4375 C-32.38235744 91.82720532 -35.58653613 90.60192572 -38.875 86.875 C-40.83617089 81.86311883 -40.90194823 77.07448094 -38.75 72.125 C-36.35425145 69.21587676 -34.38796225 67.25051026 -30.59765625 66.56640625 C-26.46533475 66.56003904 -23.73405843 66.59392513 -20.0625 68.625 C-18 71 -18 71 -17 74.1875 C-15.27596157 77.29615263 -15.27596157 77.29615263 -12.06640625 77.5703125 C-9.75689252 77.72994444 -7.44326984 77.83923929 -5.12890625 77.89453125 C-2.53430462 77.98198973 -0.46203457 78.24384688 2 79 C2.14695313 78.3709375 2.29390625 77.741875 2.4453125 77.09375 C4.15729096 70.56068277 6.66429816 66.12015645 11 61 C12.33594539 59.33542634 13.6698223 57.66918628 15 56 C14.49210937 55.12859375 13.98421875 54.2571875 13.4609375 53.359375 C12.76557127 52.15628105 12.07026305 50.95315357 11.375 49.75 C11.00818115 49.12262939 10.6413623 48.49525879 10.26342773 47.84887695 C7.8846726 43.7271893 5.93445696 39.56946122 4.0625 35.1875 C2.30823419 31.27776832 2.30823419 31.27776832 -1.16015625 29.17578125 C-3.49474516 28.96246559 -3.49474516 28.96246559 -5.8203125 29.05078125 C-10.11422111 28.95074395 -12.86896276 26.09203595 -15.8125 23.25 C-18.14290456 18.83449663 -18.31171497 14.58974634 -17.375 9.8125 C-13.73414015 2.36528668 -8.14595155 -0.98926167 0 0 Z M-9 11 C-10.09616096 13.31194193 -10.09616096 13.31194193 -10 16 C-8.1687189 18.81099414 -8.1687189 18.81099414 -6 21 C-3.06556598 20.73343428 -3.06556598 20.73343428 0 20 C2.38798682 17.09414313 2.38798682 17.09414313 1.6875 13.375 C1.35886877 10.17495688 1.35886877 10.17495688 0 9 C-4.03160191 8.73706944 -5.55892734 8.70595156 -9 11 Z M22.125 69.75 C17.56924851 74.15776884 15.84227855 78.03626725 15.5625 84.375 C15.75007336 90.94006748 17.89435031 95.24087282 21.8125 100.375 C26.65410247 103.97161898 32.54680932 104.57610192 38.4375 104.44140625 C43.78882736 103.51960748 47.91468734 100.41942352 51.4140625 96.359375 C54.63875375 91.39474242 55.72925238 85.5946334 54.55859375 79.82421875 C52.68022301 74.12470525 49.43643088 70.79526486 44.625 67.25 C37.03791322 63.63710153 28.65582663 64.50053809 22.125 69.75 Z M-31.3125 73.4375 C-33.33923701 75.03020218 -33.33923701 75.03020218 -33.875 78.4375 C-34.35062805 82.10622176 -34.35062805 82.10622176 -32 85 C-28.54250051 85.66676878 -28.54250051 85.66676878 -25 85 C-22.82979708 82.91078244 -22.82979708 82.91078244 -22 80 C-22.21329449 77.25760857 -22.21329449 77.25760857 -23 75 C-27.03930334 73.30653501 -27.03930334 73.30653501 -31.3125 73.4375 Z M93.1875 89.1875 C91.74807293 90.9969478 91.74807293 90.9969478 92.125 93.5625 C92.84389168 96.3261611 92.84389168 96.3261611 96 98 C98.67145537 97.19838209 98.67145537 97.19838209 101 96 C100.01 95.34 99.02 94.68 98 94 C98.33 93.01 98.66 92.02 99 91 C99.66 91.33 100.32 91.66 101 92 C100.34 90.68 99.68 89.36 99 88 C95.19649626 87.63464916 95.19649626 87.63464916 93.1875 89.1875 Z M101 92 C102 94 102 94 102 94 Z M-11.3125 134.125 C-13.3952479 136.93389877 -13.3952479 136.93389877 -12.3125 140.25 C-11.25758677 142.85360611 -11.25758677 142.85360611 -10 144 C-5.96839809 144.26293056 -4.44107266 144.29404844 -1 142 C-0.33323122 138.54250051 -0.33323122 138.54250051 -1 135 C-4.69987972 131.90010078 -7.50628049 130.62739288 -11.3125 134.125 Z " fill="#008000" transform="translate(69,15)"/>
<path d="M0 0 C-0.11859375 0.556875 -0.2371875 1.11375 -0.359375 1.6875 C-0.48828125 2.450625 -0.6171875 3.21375 -0.75 4 C-0.88921875 4.7425 -1.0284375 5.485 -1.171875 6.25 C-0.91343736 10.38500231 1.04195639 13.40834177 3 17 C3.71925358 18.42421306 4.43282975 19.85130789 5.140625 21.28125 C5.48867187 21.97734375 5.83671875 22.6734375 6.1953125 23.390625 C7.796875 26.59375 9.3984375 29.796875 11 33 C10.01 33 9.02 33 8 33 C8 32.01 8 31.02 8 30 C7.34 30 6.68 30 6 30 C5.54560547 28.89591797 5.54560547 28.89591797 5.08203125 27.76953125 C2.68295261 22.18152346 0.60557024 18.10767076 -4 14 C-4.28875 13.29875 -4.5775 12.5975 -4.875 11.875 C-6.68667778 8.85553704 -9.83961444 8.32161578 -13 7 C-13.33 6.01 -13.66 5.02 -14 4 C-12.88625 3.525625 -11.7725 3.05125 -10.625 2.5625 C-4.41071429 -0.11607143 -4.41071429 -0.11607143 0 0 Z " fill="#008000" transform="translate(76,35)"/>
<path d="M0 0 C0.66 0 1.32 0 2 0 C3.15025364 3.86156579 3.6118851 5.81011881 1.73046875 9.46875 C0.21910181 11.70571465 -1.33676216 13.87394816 -3 16 C-5.31 15.67 -7.62 15.34 -10 15 C-9.3125 13.125 -9.3125 13.125 -8 11 C-6.34795544 10.29788106 -4.68076231 9.63028587 -3 9 C-0.87491756 5.81237635 -0.4979837 3.73487777 0 0 Z " fill="#008000" transform="translate(173,103)"/>
<path d="M0 0 C2.51235884 1.32229412 4.55434266 2.42701199 6.3125 4.6875 C7.36184721 8.21712242 7.7990746 11.41082325 7 15 C5.28466807 17.64779435 3.28022162 19.82836036 1 22 C0.34 21.67 -0.32 21.34 -1 21 C1.75 16.125 1.75 16.125 4 15 C4.25380981 9.38779959 4.25380981 9.38779959 3 4 C2.01 3.34 1.02 2.68 0 2 C0 1.34 0 0.68 0 0 Z " fill="#008000" transform="translate(171,97)"/>
<path d="M0 0 C3.04755711 2.03170474 3.49413604 2.53322908 4.82421875 5.6953125 C5.28344727 6.76845703 5.28344727 6.76845703 5.75195312 7.86328125 C6.06068359 8.60964844 6.36941406 9.35601562 6.6875 10.125 C7.00783203 10.87910156 7.32816406 11.63320313 7.65820312 12.41015625 C8.44688417 14.27003096 9.22451422 16.13458488 10 18 C9.01 17.67 8.02 17.34 7 17 C7 16.01 7 15.02 7 14 C6.34 14 5.68 14 5 14 C4.15973604 12.23244474 3.32801278 10.46082737 2.5 8.6875 C2.0359375 7.70136719 1.571875 6.71523438 1.09375 5.69921875 C0 3 0 3 0 0 Z " fill="#008000" transform="translate(77,51)"/>
<path d="M0 0 C-0.33 0.99 -0.66 1.98 -1 3 C-2.32 3 -3.64 3 -5 3 C-6.68756133 3.96432076 -8.35666496 4.96210419 -10 6 C-10.66 6 -11.32 6 -12 6 C-11.72684137 2.63104351 -11.38658365 1.34240266 -8.8125 -0.9375 C-5.16846653 -2.31413487 -3.48689861 -1.54072264 0 0 Z " fill="#008000" transform="translate(45,84)"/>
<path d="M0 0 C1 3 1 3 -0.375 5.8125 C-0.91125 6.864375 -1.4475 7.91625 -2 9 C-2.70758326 12.2366963 -2.70758326 12.2366963 -3 15 C-3.66 15 -4.32 15 -5 15 C-5.67081836 8.56014376 -3.75430238 5.16216577 0 0 Z " fill="#008000" transform="translate(88,85)"/>
<path d="M0 0 C0.99 0.61875 1.98 1.2375 3 1.875 C6.89746801 4.12261959 10.6118123 5.07617101 15 6 C15 6.33 15 6.66 15 7 C9.20853178 7.36196676 5.3139263 6.38210489 0 4 C-0.33 3.34 -0.66 2.68 -1 2 C-0.67 1.34 -0.34 0.68 0 0 Z " fill="#008000" transform="translate(89,113)"/>
<path d="M0 0 C4.55015893 1.51671964 6.50057264 5.16891053 9 9 C8.67 9.66 8.34 10.32 8 11 C4.38061905 8.35883012 2.01293477 6.02586954 0 2 C0 1.34 0 0.68 0 0 Z " fill="#008000" transform="translate(76,113)"/>
<path d="M0 0 C0 0.66 0 1.32 0 2 C-1.0725 2.12375 -2.145 2.2475 -3.25 2.375 C-6.37863615 2.89643936 -8.33480424 3.40088254 -11 5 C-11.66 4.34 -12.32 3.68 -13 3 C-8.50235477 -1.63819664 -5.96030685 -1.2122658 0 0 Z " fill="#008000" transform="translate(66,142)"/>
<path d="M0 0 C2.31 0.33 4.62 0.66 7 1 C5.71502463 3.56995074 4.50087627 3.90434463 1.9375 5.125 C1.20402344 5.47820312 0.47054687 5.83140625 -0.28515625 6.1953125 C-0.85105469 6.46085937 -1.41695312 6.72640625 -2 7 C-2.33 6.34 -2.66 5.68 -3 5 C-1.5625 2.375 -1.5625 2.375 0 0 Z " fill="#131313" transform="translate(161,97)"/>
<path d="M0 0 C3.61569905 2.63848309 6.02835214 4.95293333 8 9 C8 9.99 8 10.98 8 12 C6.84545838 10.75803878 5.70167438 9.50607155 4.5625 8.25 C3.92441406 7.55390625 3.28632812 6.8578125 2.62890625 6.140625 C1.00918675 4.01207275 0.41732744 2.60976595 0 0 Z " fill="#040306" transform="translate(74,113)"/>
<path d="M0 0 C3 2 3 2 3.51171875 4.1640625 C3.56972656 4.97617188 3.62773438 5.78828125 3.6875 6.625 C3.75324219 7.44226563 3.81898437 8.25953125 3.88671875 9.1015625 C3.92410156 9.72804688 3.96148437 10.35453125 4 11 C3.01 11.495 3.01 11.495 2 12 C0.40861915 7.82262526 -0.21278058 4.46839215 0 0 Z " fill="#020204" transform="translate(71,101)"/>
<path d="M0 0 C4.41889613 1.35021826 6.34345343 3.26115668 9 7 C8.01 7 7.02 7 6 7 C5.67 6.01 5.34 5.02 5 4 C1.99152582 2.77479736 1.99152582 2.77479736 -1 2 C-0.67 1.34 -0.34 0.68 0 0 Z " fill="#008000" transform="translate(119,70)"/>
<path d="M0 0 C-3.90898316 2.60598877 -6.33080658 2.70354328 -11 3 C-11.66 2.34 -12.32 1.68 -13 1 C-11.39796533 0.63631108 -9.79325797 0.28438048 -8.1875 -0.0625 C-7.29417969 -0.25972656 -6.40085937 -0.45695313 -5.48046875 -0.66015625 C-3 -1 -3 -1 0 0 Z " fill="#030103" transform="translate(115,131)"/>
<path d="M0 0 C0.61875 0.33 1.2375 0.66 1.875 1 C3.91018344 2.14193235 3.91018344 2.14193235 6 2 C5.34 3.32 4.68 4.64 4 6 C2.35 6 0.7 6 -1 6 C-0.67 4.02 -0.34 2.04 0 0 Z " fill="#008000" transform="translate(167,105)"/>
<path d="M0 0 C0.66 0.33 1.32 0.66 2 1 C2.4140625 3.06640625 2.4140625 3.06640625 2.625 5.5625 C2.69976562 6.38878906 2.77453125 7.21507813 2.8515625 8.06640625 C2.92503906 9.02353516 2.92503906 9.02353516 3 10 C2.67 9.34 2.34 8.68 2 8 C1.34 8 0.68 8 0 8 C-1.125 2.25 -1.125 2.25 0 0 Z " fill="#030303" transform="translate(135,89)"/>
<path d="M0 0 C2.0625 0.75 2.0625 0.75 4 2 C4.33 2.99 4.66 3.98 5 5 C3.68 5 2.36 5 1 5 C-0.75 3 -0.75 3 -2 1 C-1.34 0.67 -0.68 0.34 0 0 Z " fill="#008000" transform="translate(57,34)"/>
<path d="M0 0 C1.98 0.495 1.98 0.495 4 1 C4 1.99 4 2.98 4 4 C2.35 4.33 0.7 4.66 -1 5 C-0.67 3.35 -0.34 1.7 0 0 Z " fill="#008000" transform="translate(57,19)"/>
<path d="" fill="#FFFFFF" transform="translate(0,0)"/>
<path d="" fill="#FFFFFF" transform="translate(0,0)"/>
<path d="" fill="#FFFFFF" transform="translate(0,0)"/>
<path d="" fill="#FFFFFF" transform="translate(0,0)"/>
<path d="" fill="#FFFFFF" transform="translate(0,0)"/>
<path d="" fill="#000000" transform="translate(0,0)"/>
<path d="" fill="#FFFFFF" transform="translate(0,0)"/>
<path d="" fill="#FFFFFF" transform="translate(0,0)"/>
</svg>
